<?xml version="1.0" encoding="UTF-8"?>
<svg version="1.1" xmlns="http://www.w3.org/2000/svg" width="601" height="314">
<path d="M0 0 C1.65442603 1.70116123 2.52241535 3.21183527 3.3828125 5.421875 C3.24687535 9.22811515 2.92172994 11.63422644 0.7578125 14.796875 C-2.50696112 17.03066748 -4.65957125 17.421875 -8.6171875 17.421875 C-11.21582704 16.19342722 -13.28412612 15.02931902 -15.6171875 13.421875 C-27.3887499 5.51776636 -39.58920597 2.79727847 -53.74609375 4.8828125 C-61.75321331 6.65753261 -69.91955307 9.71763765 -75.8046875 15.61328125 C-77.6171875 17.421875 -77.6171875 17.421875 -79.6171875 17.421875 C-79.88789062 17.99550781 -80.15859375 18.56914063 -80.4375 19.16015625 C-81.63643468 21.45877605 -83.00190551 23.48977704 -84.4921875 25.609375 C-92.76363335 37.88509048 -94.6857657 51.3811504 -91.96875 65.8828125 C-88.17069059 78.25085212 -80.83226327 88.55568896 -69.65625 95.17578125 C-61.24725582 99.57091045 -53.71963258 101.81022924 -44.2421875 101.734375 C-43.12529541 101.72591553 -43.12529541 101.72591553 -41.98583984 101.71728516 C-31.13435166 101.47876496 -21.06463824 97.67123623 -12.578125 90.76171875 C-9.16956641 88.43276338 -5.5808963 88.78068681 -1.6171875 89.421875 C1.78347589 91.54728962 2.26532991 92.9911055 3.3203125 96.859375 C3.39444786 101.08509031 3.10628917 102.2177848 0.3828125 105.421875 C-12.4150519 117.50557286 -29.18175853 121.97946737 -46.38818359 121.83935547 C-65.97485007 121.21910453 -82.85922373 113.1602854 -96.2734375 98.94335938 C-99.66434526 95.10394492 -102.24295926 90.94204031 -104.6171875 86.421875 C-105.08640625 85.53886719 -105.555625 84.65585938 -106.0390625 83.74609375 C-113.53215163 68.51749202 -115.27407176 50.10326351 -110.77734375 33.6640625 C-103.5489216 13.46342148 -91.17328951 -0.98836101 -71.60546875 -10.328125 C-47.14098045 -20.56163645 -20.75276782 -15.82049565 0 0 Z " fill="#C61318" transform="translate(165.6171875,68.578125)"/>
<path d="M0 0 C5.79441723 3.15251819 8.07947247 8.29927228 10.4765625 14.234375 C10.91355469 13.45513672 10.91355469 13.45513672 11.359375 12.66015625 C15.17940037 6.16130805 19.09570554 1.66270889 26.4765625 -0.765625 C34.11327278 -1.60654316 41.21476884 -1.58348907 47.4765625 3.234375 C53.58253356 8.4899711 55.88703471 14.89587338 56.7578125 22.78125 C57.05414272 30.7327777 55.05986217 38.32947006 50.1015625 44.66015625 C45.08101279 49.52381378 39.25360183 51.5351036 32.3515625 51.796875 C24.94869945 51.4362227 20.07924896 49.27711634 15.1015625 43.796875 C12.96635857 41.10466135 11.48246869 38.55386542 10.4765625 35.234375 C10.24582031 35.75386719 10.01507813 36.27335937 9.77734375 36.80859375 C7.09121628 42.55244735 4.15814989 46.33764245 -1.0859375 50.046875 C-7.4504907 52.24553883 -14.60965767 52.433325 -20.8984375 49.796875 C-26.16214867 46.68251256 -29.33282519 41.61159262 -31.3359375 35.9296875 C-33.42278318 27.5533208 -33.7109324 17.67526509 -29.23046875 10.02734375 C-21.91891196 -0.10357942 -12.3986935 -3.7618327 0 0 Z M-15.3359375 11.296875 C-19.55943911 16.9684343 -20.32696579 23.34351117 -19.5234375 30.234375 C-18.45734375 34.0168172 -16.97957001 38.13600883 -13.5234375 40.234375 C-10.10844159 40.90145048 -10.10844159 40.90145048 -6.5234375 40.234375 C-2.79497526 37.31644803 -1.68332923 35.8739419 -0.5234375 31.234375 C3.1065625 31.564375 6.7365625 31.894375 10.4765625 32.234375 C10.4765625 27.284375 10.4765625 22.334375 10.4765625 17.234375 C6.8465625 17.564375 3.2165625 17.894375 -0.5234375 18.234375 C-0.7915625 17.30625 -1.0596875 16.378125 -1.3359375 15.421875 C-2.64057848 11.65450058 -2.64057848 11.65450058 -5.5234375 9.234375 C-9.85263306 8.59301269 -11.77139937 8.68288037 -15.3359375 11.296875 Z M24.4765625 13.234375 C21.30782724 19.53849042 21.11858913 27.93645928 23.234375 34.6328125 C24.55679559 37.10063675 26.13637916 38.95284396 28.2890625 40.734375 C31.64333364 41.50106555 34.15596484 41.06452441 37.4765625 40.234375 C41.22416309 37.49963943 42.49834701 34.71786265 43.4765625 30.234375 C44.1915799 23.16003614 43.85865985 17.08205675 39.4765625 11.234375 C33.86008881 7.49005921 29.02699147 8.42392152 24.4765625 13.234375 Z " fill="#C61318" transform="translate(253.5234375,139.765625)"/>
<path d="M0 0 C1.8871875 0.0309375 1.8871875 0.0309375 3.8125 0.0625 C3.8125 3.3625 3.8125 6.6625 3.8125 10.0625 C1.1725 10.3925 -1.4675 10.7225 -4.1875 11.0625 C-4.50122549 15.00551471 -4.50122549 15.00551471 -2.6875 17.875 C-0.91964319 21.63169572 -0.73912825 23.95242561 -1.1875 28.0625 C-3.06526636 32.44395485 -6.17347411 35.54569658 -10.1875 38.0625 C-17.34472776 40.74646041 -24.6267772 40.25364187 -32.1875 40.0625 C-32.5175 41.0525 -32.8475 42.0425 -33.1875 43.0625 C-31.50102308 45.14134094 -30.61976087 45.98854829 -27.93847656 46.44726562 C-27.07706055 46.45435547 -26.21564453 46.46144531 -25.328125 46.46875 C-24.37679688 46.49066406 -23.42546875 46.51257813 -22.4453125 46.53515625 C-21.45273437 46.54417969 -20.46015625 46.55320313 -19.4375 46.5625 C-4.94973242 46.69629205 -4.94973242 46.69629205 1.1875 52.1875 C3.40601699 56.11256852 4.00328526 59.571097 3.8125 64.0625 C1.87225989 69.99735209 -2.12921145 73.49414689 -7.625 76.3125 C-18.50106093 79.49573735 -30.59196495 79.02779872 -41.1875 75.0625 C-44.39900969 72.92149354 -45.74258777 71.62110972 -46.80078125 67.9140625 C-47.4297465 64.08944553 -47.5038723 61.75550599 -45.875 58.1875 C-45.318125 57.48625 -44.76125 56.785 -44.1875 56.0625 C-43.5275 55.0725 -42.8675 54.0825 -42.1875 53.0625 C-42.5175 52.546875 -42.8475 52.03125 -43.1875 51.5 C-44.60968866 48.03341514 -44.6930289 45.7907756 -44.1875 42.0625 C-42.44366599 39.45688755 -40.4242076 37.25260952 -38.1875 35.0625 C-39.1465625 34.134375 -39.1465625 34.134375 -40.125 33.1875 C-43.04983086 30.1740379 -43.38179973 28.418404 -43.5 24.3125 C-43.42231096 19.41102763 -42.66474911 16.71361157 -39.1875 13.0625 C-33.47422756 9.19931961 -28.45397578 8.52597171 -21.6875 8.8125 C-20.45386719 8.83957031 -20.45386719 8.83957031 -19.1953125 8.8671875 C-17.19219196 8.9137717 -15.18968179 8.98549301 -13.1875 9.0625 C-12.89746094 8.27359375 -12.60742188 7.4846875 -12.30859375 6.671875 C-11.02938046 3.69447265 -9.92528218 2.72176193 -7.1875 1.0625 C-4.43671116 0.14557039 -2.82801087 -0.04636083 0 0 Z M-30.1875 21.0625 C-31.1785892 23.89418343 -31.4006106 25.38442083 -30.5 28.25 C-28.87379424 30.49571272 -27.81967777 31.18510741 -25.1875 32.0625 C-21.26939921 32.3890084 -18.50103774 32.27152516 -15.1875 30.0625 C-13.64163124 26.97076248 -13.89390479 24.46820448 -14.1875 21.0625 C-15.5405128 18.45935006 -15.5405128 18.45935006 -18.1875 17.0625 C-23.37318959 16.03173793 -27.07390244 16.45437561 -30.1875 21.0625 Z M-35.1875 58.0625 C-35.83796896 60.45461099 -35.83796896 60.45461099 -36.1875 63.0625 C-33.68679767 66.42883006 -31.10876416 67.77209818 -27.1875 69.0625 C-20.36057748 69.72041368 -13.98456928 70.03763322 -8.1875 66.0625 C-7.93719023 63.64630177 -7.93719023 63.64630177 -8.1875 61.0625 C-11.52553691 58.83714206 -12.81569711 58.77271596 -16.73046875 58.6484375 C-17.80361328 58.60976562 -18.87675781 58.57109375 -19.98242188 58.53125 C-21.10197266 58.5003125 -22.22152344 58.469375 -23.375 58.4375 C-24.50615234 58.39882812 -25.63730469 58.36015625 -26.80273438 58.3203125 C-29.5974925 58.22597467 -32.39224278 58.14038348 -35.1875 58.0625 Z " fill="#C61318" transform="translate(502.1875,129.9375)"/>
<path d="M0 0 C0 3.3 0 6.6 0 10 C-2.31 10.33 -4.62 10.66 -7 11 C-7.3350803 14.9417798 -7.3350803 14.9417798 -5.4375 17.6875 C-3.5051932 22.14020697 -3.5863417 25.38151406 -5 30 C-7.4230209 34.62333766 -10.60292224 37.20295022 -15.5 38.9375 C-21.91248057 40.54552265 -28.43846362 40.25527591 -35 40 C-35.6814823 41.89179203 -35.6814823 41.89179203 -36 44 C-33.46768082 46.53231918 -32.56002615 46.25027309 -29.0546875 46.2734375 C-27.56195313 46.304375 -27.56195313 46.304375 -26.0390625 46.3359375 C-23.9532043 46.36168884 -21.86724055 46.38008969 -19.78125 46.390625 C-12.36427659 46.56222593 -6.68507628 47.55267058 -1.0625 52.8125 C1.02422697 57.10870258 1.15683354 60.88256104 0.5 65.5625 C-1.80145623 70.83667053 -5.4989446 73.71897163 -10.5625 76.3125 C-21.57897977 79.41971224 -35.24656264 79.61791287 -45.5 74.125 C-49.36186214 70.84241718 -49.85773386 69.23974776 -50.4375 64.1875 C-50.35462341 59.27936423 -48.07078101 56.68493721 -45 53 C-45.66 52.01 -46.32 51.02 -47 50 C-47.69039779 46.1846438 -47.87062073 42.49249268 -45.87890625 39.078125 C-44.5 37.4375 -44.5 37.4375 -42 35 C-42.66 34.21625 -43.32 33.4325 -44 32.625 C-46.84764947 28.33318544 -46.77764648 23.97369731 -46 19 C-43.99112127 14.48002286 -41.27029399 11.78160894 -36.75390625 9.65625 C-32.22522792 8.57707559 -27.61055495 8.91831429 -22.99145508 9.32275391 C-20.54554445 9.5233716 -20.54554445 9.5233716 -17 9 C-14.5224952 6.22174366 -14.5224952 6.22174366 -13 3 C-9.25711729 -0.74288271 -5.09766283 -0.09803198 0 0 Z M-34 22 C-34.06584389 25.81894541 -33.85572029 27.97971812 -31.375 30.9375 C-28.00997209 32.44290722 -25.64962568 32.44819965 -22 32 C-18.95086064 30.610911 -18.95086064 30.610911 -17 28 C-16.36789283 24.06688873 -16.39979734 21.97532932 -18.5 18.5625 C-24.58628428 14.75857233 -30.15155184 16.16525602 -34 22 Z M-39 59 C-39.50135199 61.37221956 -39.50135199 61.37221956 -39 64 C-34.21256942 68.78743058 -30.11790606 69.15905795 -23.5625 69.25 C-22.45003906 69.27578125 -21.33757812 69.3015625 -20.19140625 69.328125 C-16.64954819 68.96396824 -14.80332768 68.1638825 -12 66 C-11.11341534 63.40877257 -11.11341534 63.40877257 -11 61 C-14.32020631 58.78652913 -15.61570146 58.70033066 -19.5078125 58.55078125 C-20.57644531 58.50759766 -21.64507812 58.46441406 -22.74609375 58.41992188 C-23.86113281 58.38447266 -24.97617188 58.34902344 -26.125 58.3125 C-27.80916016 58.24192383 -27.80916016 58.24192383 -29.52734375 58.16992188 C-34.60866632 57.4777932 -34.60866632 57.4777932 -39 59 Z " fill="#969696" transform="translate(270,201)"/>
<path d="M0 0 C2.640625 1.48828125 2.640625 1.48828125 5.25 3.3125 C17.41069027 11.39197635 30.23183437 14.0505212 44.58984375 11.31640625 C51.78268729 9.25519901 57.76278775 6.06725316 64 2 C67.44351372 -0.05286395 69.12728244 -1.01745435 73.125 -0.9375 C76.54220796 0.17680694 77.91673192 1.06799307 80 4 C81.00109923 7.67069718 81.3790414 9.96395351 80.0625 13.5625 C70.40784231 24.97255 54.41918233 30.6643575 39.88427734 32.22753906 C22.25968565 33.51684667 3.81170193 28.80316062 -9.8125 17.1875 C-12.84965555 14.35757042 -13.89489093 12.92846345 -14.375 8.6875 C-14 5 -14 5 -11.6875 2.125 C-7.49890805 -1.18690991 -5.06539319 -1.24114734 0 0 Z " fill="#969696" transform="translate(88,229)"/>
<path d="M0 0 C5.18438482 2.71616683 7.75916925 6.65525876 9.94140625 11.93359375 C12.45221457 21.18618951 12.44535749 33.6739529 8.20703125 42.36328125 C5.513004 46.26766857 2.09410935 49.19903907 -2.140625 51.31640625 C-4.49609375 51.5546875 -4.49609375 51.5546875 -7.328125 51.62890625 C-8.71064453 51.68498047 -8.71064453 51.68498047 -10.12109375 51.7421875 C-13.140625 51.31640625 -13.140625 51.31640625 -20.140625 47.31640625 C-20.470625 53.91640625 -20.800625 60.51640625 -21.140625 67.31640625 C-25.100625 67.31640625 -29.060625 67.31640625 -33.140625 67.31640625 C-33.140625 45.20640625 -33.140625 23.09640625 -33.140625 0.31640625 C-29.510625 0.31640625 -25.880625 0.31640625 -22.140625 0.31640625 C-21.810625 1.96640625 -21.480625 3.61640625 -21.140625 5.31640625 C-20.191875 4.51203125 -19.243125 3.70765625 -18.265625 2.87890625 C-13.00935258 -1.57749863 -6.62126203 -2.11445412 0 0 Z M-19.140625 14.31640625 C-21.53593128 17.98474244 -21.47256818 21.37711311 -21.515625 25.69140625 C-21.54398437 26.97789062 -21.57234375 28.264375 -21.6015625 29.58984375 C-21.06882179 33.89691696 -19.86564775 35.98145061 -17.140625 39.31640625 C-13.62237989 41.66190299 -12.28286806 41.89632028 -8.140625 41.31640625 C-4.15188204 38.41550228 -2.31633383 35.49260788 -1.359375 30.625 C-0.62994016 22.92685733 -1.61516589 16.62462198 -6.140625 10.31640625 C-11.93893117 7.41725316 -15.34425931 9.67640374 -19.140625 14.31640625 Z " fill="#969696" transform="translate(429.140625,210.68359375)"/>
<path d="M0 0 C0.79019531 -0.020625 1.58039062 -0.04125 2.39453125 -0.0625 C8.55056171 -0.10347192 12.67321152 1.12953428 17.4375 5.25 C20.61822575 9.01974904 20.31613977 13.04637001 20.40625 17.734375 C20.43386414 18.83510345 20.43386414 18.83510345 20.46203613 19.95806885 C20.52071843 22.30529855 20.57350931 24.65260222 20.625 27 C20.69313695 30.07826168 20.76693098 33.15631924 20.84375 36.234375 C20.85732544 36.93254333 20.87090088 37.63071167 20.8848877 38.35003662 C20.99425552 42.73647696 21.42974215 46.9278606 22.125 51.25 C18.165 51.25 14.205 51.25 10.125 51.25 C9.465 49.27 8.805 47.29 8.125 45.25 C7.65449219 45.67152344 7.18398438 46.09304687 6.69921875 46.52734375 C6.07660156 47.07519531 5.45398438 47.62304688 4.8125 48.1875 C4.19761719 48.73277344 3.58273437 49.27804688 2.94921875 49.83984375 C-1.58381181 53.34396374 -7.43581634 52.67140017 -12.875 52.25 C-17.76641172 50.61952943 -21.38924273 47.81547452 -23.875 43.25 C-25.24257601 38.64386976 -25.1205478 35.11663931 -23.8125 30.5 C-20.4135175 24.79848097 -17.02174188 22.38071252 -10.8125 20.4375 C-4.51171553 18.89267957 1.67712844 18.97322332 8.125 19.25 C7.86106499 15.81769552 7.86106499 15.81769552 7.125 12.25 C3.80283762 10.03522508 2.57466677 9.95332293 -1.3125 9.9375 C-2.25996094 9.92074219 -3.20742188 9.90398437 -4.18359375 9.88671875 C-7.30286993 10.30775312 -8.63419671 11.07044874 -10.875 13.25 C-11.205 14.24 -11.535 15.23 -11.875 16.25 C-15.505 15.92 -19.135 15.59 -22.875 15.25 C-22.42072404 10.36653339 -21.30157167 7.77175421 -17.875 4.25 C-12.05987723 0.17941406 -6.87318525 0.04441477 0 0 Z M-10.671875 31.13671875 C-12.16876041 33.36069456 -12.16876041 33.36069456 -11.875 36.8125 C-11.17363831 40.30806532 -11.17363831 40.30806532 -8.75 42.25 C-4.92074966 43.58191316 -2.77675466 43.34522938 1.125 42.25 C4.03296382 40.38291808 6.55270895 38.39458209 8.125 35.25 C8.19450541 33.70976004 8.20952357 32.16665012 8.1875 30.625 C8.17847656 29.80773437 8.16945313 28.99046875 8.16015625 28.1484375 C8.14855469 27.52195313 8.13695312 26.89546875 8.125 26.25 C1.78540404 25.83654809 -6.07128014 26.30609415 -10.671875 31.13671875 Z " fill="#C61318" transform="translate(527.875,138.75)"/>
<path d="M0 0 C1.77697266 -0.02513672 1.77697266 -0.02513672 3.58984375 -0.05078125 C10.54439904 0.67674816 14.31883417 4.08636085 18.58203125 9.28125 C23.15766018 15.55915777 22.0625 20.12388417 22.0625 28.3125 C11.1725 28.3125 0.2825 28.3125 -10.9375 28.3125 C-9.79800188 36.67131304 -9.79800188 36.67131304 -6.8125 39.875 C-3.04952181 41.75648909 -0.06587152 42.15485459 4.0625 41.3125 C7.50562714 39.1880173 8.77867547 38.16397359 10.0625 34.3125 C11.68830966 34.42648665 13.31317157 34.55405659 14.9375 34.6875 C15.84242188 34.75710937 16.74734375 34.82671875 17.6796875 34.8984375 C20.0625 35.3125 20.0625 35.3125 22.0625 37.3125 C18.06675895 44.43764886 14.10439632 49.6473853 6.0625 52.3125 C-2.54071774 53.3836739 -9.8675337 52.54902355 -16.9375 47.3125 C-22.82693852 41.46473204 -24.04135148 34.58197526 -24.3125 26.5 C-24.17002886 19.04401012 -23.14049718 12.903334 -18.06640625 7.21484375 C-12.38048754 1.98035904 -7.80816138 0.02543375 0 0 Z M-9.9375 14.3125 C-10.2675 16.2925 -10.5975 18.2725 -10.9375 20.3125 C-4.0075 20.3125 2.9225 20.3125 10.0625 20.3125 C8.7117736 13.70887271 8.7117736 13.70887271 5.9375 10.875 C-0.45923929 7.39851125 -5.5886602 8.25048088 -9.9375 14.3125 Z " fill="#C61318" transform="translate(383.9375,138.6875)"/>
<path d="M0 0 C5.80955103 3.48573062 9.69267867 8.8686432 11.5 15.375 C13.08107227 23.86836344 12.83976455 31.86878679 8.8125 39.625 C3.98372313 45.36732925 -0.83350105 49.86114736 -8.55078125 50.7109375 C-21.24607499 50.86297695 -21.24607499 50.86297695 -26.5 46.375 C-33.37836801 38.26560416 -34.98957292 30.56133048 -34.8046875 20.07421875 C-34.20625862 12.80867837 -31.8883662 8.3606542 -26.5625 3.4375 C-19.27927108 -2.68736249 -8.74554336 -3.99796268 0 0 Z M-19.5 12.375 C-21.532 16.39637064 -21.79791934 19.83623884 -21.8125 24.3125 C-21.82925781 25.49714844 -21.84601563 26.68179688 -21.86328125 27.90234375 C-21.3794185 32.52765542 -19.9271899 35.89859665 -16.6875 39.25 C-13.64217432 40.81616749 -11.88975539 40.91736086 -8.5 40.375 C-4.48445331 37.82667229 -2.94845548 36.45537001 -1.125 32.0625 C0.15962342 24.48322185 -0.20256536 18.36783553 -3.5 11.375 C-5.92356777 8.51865227 -7.19309174 8.41406105 -10.9375 7.9375 C-15.11907331 8.45102655 -16.6273824 9.33823282 -19.5 12.375 Z " fill="#969696" transform="translate(330.5,211.625)"/>
<path d="M0 0 C4.21767163 3.08610119 6.56637095 6.77813152 7.5625 11.875 C7.64628506 14.78459378 7.67867895 17.66921241 7.66015625 20.578125 C7.6587413 21.41591492 7.65732635 22.25370483 7.65586853 23.11688232 C7.65028197 25.78629157 7.63773194 28.4556162 7.625 31.125 C7.61998326 32.93749879 7.61542066 34.74999889 7.61132812 36.5625 C7.60031694 41.00003248 7.58306155 45.43750191 7.5625 49.875 C3.6025 49.875 -0.3575 49.875 -4.4375 49.875 C-4.45731934 48.90151611 -4.47713867 47.92803223 -4.49755859 46.92504883 C-4.57385367 43.29995649 -4.66253336 39.67525306 -4.75488281 36.05053711 C-4.79307409 34.48420919 -4.82794394 32.91779651 -4.859375 31.35131836 C-4.90524071 29.094582 -4.96319769 26.83842417 -5.0234375 24.58203125 C-5.03498871 23.88600296 -5.04653992 23.18997467 -5.05844116 22.47285461 C-5.17673523 18.54172028 -5.59097896 15.37352245 -7.4375 11.875 C-9.63168437 10.19721688 -9.63168437 10.19721688 -12.4375 9.875 C-15.68551468 10.66498813 -15.68551468 10.66498813 -18.4375 12.875 C-20.98214847 17.77992398 -21.82929844 21.53280723 -21.94921875 27.12109375 C-21.96716995 27.77707047 -21.98512115 28.43304718 -22.00361633 29.10890198 C-22.05722153 31.17670512 -22.09145093 33.24428438 -22.125 35.3125 C-22.15821743 36.72594231 -22.19271111 38.13935523 -22.22851562 39.55273438 C-22.31291619 42.99327446 -22.37996279 46.43389366 -22.4375 49.875 C-26.3975 49.875 -30.3575 49.875 -34.4375 49.875 C-34.4375 33.375 -34.4375 16.875 -34.4375 -0.125 C-30.8075 -0.125 -27.1775 -0.125 -23.4375 -0.125 C-23.1075 2.185 -22.7775 4.495 -22.4375 6.875 C-22.02757812 6.38128906 -21.61765625 5.88757813 -21.1953125 5.37890625 C-20.65648437 4.73824219 -20.11765625 4.09757813 -19.5625 3.4375 C-19.02882813 2.79941406 -18.49515625 2.16132813 -17.9453125 1.50390625 C-13.6457557 -3.14095175 -5.47692988 -1.79244978 0 0 Z " fill="#C61318" transform="translate(348.4375,140.125)"/>
<path d="M0 0 C3.96 0 7.92 0 12 0 C12.01981934 1.07483643 12.03963867 2.14967285 12.06005859 3.25708008 C12.13611258 7.24364714 12.22483009 11.2298491 12.31738281 15.21606445 C12.35567345 16.94157708 12.39052621 18.66716956 12.421875 20.39282227 C12.46752404 22.87284895 12.52551781 25.35232591 12.5859375 27.83203125 C12.59748871 28.60400345 12.60903992 29.37597565 12.62094116 30.17134094 C12.72521273 33.95246674 12.8534589 35.78018835 15 39 C16.76033623 40.0248753 16.76033623 40.0248753 19 40 C22.73161527 38.70535797 24.5514549 37.72257865 26.65161133 34.33935547 C28.17578819 30.56465129 28.42779644 27.69465236 28.51171875 23.6328125 C28.52966995 22.95322479 28.54762115 22.27363708 28.56611633 21.57345581 C28.61986817 19.42403181 28.65399936 17.27482523 28.6875 15.125 C28.72070438 13.65882413 28.7551969 12.19267683 28.79101562 10.7265625 C28.87557198 7.15125052 28.94255006 3.57586208 29 0 C32.96 0 36.92 0 41 0 C41 16.5 41 33 41 50 C37.37 50 33.74 50 30 50 C29.67 48.02 29.34 46.04 29 44 C28.443125 44.78375 27.88625 45.5675 27.3125 46.375 C24.2720909 49.82627519 22.23387788 50.79045702 17.66796875 51.21875 C12.40789474 51.40801803 8.37108323 51.22627572 4 48 C-0.00848903 42.34631071 -0.55437436 38.17436705 -0.390625 31.34765625 C-0.38496521 30.44752304 -0.37930542 29.54738983 -0.37347412 28.61997986 C-0.3512223 25.76692769 -0.30104799 22.91516756 -0.25 20.0625 C-0.22992048 18.11915886 -0.21167226 16.17579789 -0.1953125 14.23242188 C-0.15139435 9.48778932 -0.08244565 4.74411313 0 0 Z " fill="#969696" transform="translate(347,211)"/>
<path d="M0 0 C4.93909191 2.33484345 7.422009 5.23091922 10 10 C10.5243754 13.19662709 10.46768907 16.32262049 10.390625 19.5546875 C10.38496521 20.45623566 10.37930542 21.35778381 10.37347412 22.28665161 C10.35118555 25.14998763 10.30100389 28.01204589 10.25 30.875 C10.22992525 32.82289852 10.21167619 34.77081677 10.1953125 36.71875 C10.15134547 41.4796547 10.08237063 46.23961114 10 51 C6.04 51 2.08 51 -2 51 C-2.02505615 49.92516357 -2.0501123 48.85032715 -2.07592773 47.74291992 C-2.17007495 43.75646978 -2.27027785 39.77019091 -2.37231445 35.78393555 C-2.41563562 34.05839035 -2.45731273 32.33280307 -2.49731445 30.60717773 C-2.55508526 28.12731236 -2.61876003 25.64765828 -2.68359375 23.16796875 C-2.70030624 22.39599655 -2.71701874 21.62402435 -2.73423767 20.82865906 C-2.82227895 17.64817067 -2.98745195 15.03764416 -4 12 C-7.43878112 11.12031181 -9.36562983 10.7344497 -12.6875 12.125 C-16.39236249 15.12894256 -17.84500636 17.74351002 -18.43237305 22.50512695 C-18.45855713 23.81956787 -18.48474121 25.13400879 -18.51171875 26.48828125 C-18.52966995 27.19147995 -18.54762115 27.89467865 -18.56611633 28.6191864 C-18.6200048 30.85023117 -18.65404412 33.0810647 -18.6875 35.3125 C-18.72069224 36.83140947 -18.75518367 38.35029114 -18.79101562 39.86914062 C-18.87571695 43.57922416 -18.94263074 47.2893817 -19 51 C-22.96 51 -26.92 51 -31 51 C-31 34.5 -31 18 -31 1 C-27.37 1 -23.74 1 -20 1 C-19.67 2.98 -19.34 4.96 -19 7 C-18.236875 6.21625 -17.47375 5.4325 -16.6875 4.625 C-11.33514071 -0.60288582 -7.21704352 -0.82716831 0 0 Z " fill="#C61318" transform="translate(442,139)"/>
<path d="M0 0 C0 4.29 0 8.58 0 13 C-1.423125 13.53625 -2.84625 14.0725 -4.3125 14.625 C-7.72199569 16.1397367 -8.84016495 16.76524226 -11 19.9375 C-12.51197324 24.56791806 -13.13440687 28.8762978 -13.31640625 33.73828125 C-13.35830078 34.80498047 -13.40019531 35.87167969 -13.44335938 36.97070312 C-13.48267578 38.07349609 -13.52199219 39.17628906 -13.5625 40.3125 C-13.60568359 41.43462891 -13.64886719 42.55675781 -13.69335938 43.71289062 C-13.79914711 46.47512585 -13.90004983 49.23754739 -14 52 C-17.96 52 -21.92 52 -26 52 C-26 35.5 -26 19 -26 2 C-22.37 2 -18.74 2 -15 2 C-14.67 3.98 -14.34 5.96 -14 8 C-13.46375 7.236875 -12.9275 6.47375 -12.375 5.6875 C-8.68395916 1.51079589 -5.56447731 0 0 0 Z " fill="#969696" transform="translate(297,209)"/>
</svg>
