<?xml version="1.0" encoding="UTF-8"?>
<svg version="1.1" xmlns="http://www.w3.org/2000/svg" width="224" height="225">
<path d="M0 0 C2.72457163 2.99702879 3.01570216 5.05248858 2.875 9.0625 C0.875 12.0625 0.875 12.0625 -2.125 14.0625 C-7.9205398 14.39685807 -11.34312957 11.76144127 -15.859375 8.55859375 C-24.187588 3.05910137 -34.33965795 1.9819732 -44.01953125 3.5234375 C-54.21761227 5.7489494 -63.80433258 10.50665511 -70.125 19.0625 C-76.91888317 30.85308683 -80.23161939 41.5674745 -77.4765625 55.29296875 C-74.12333799 66.37007364 -67.94919933 74.89572379 -58.125 81.0625 C-47.73416818 86.53311451 -36.40286822 87.80573338 -24.87890625 85.37890625 C-20.208219 83.78225997 -16.39543319 81.65918256 -12.375 78.8125 C-9.37654142 76.70446025 -8.049831 76.04894493 -4.3125 75.375 C-1.125 76.0625 -1.125 76.0625 1.375 78.1875 C2.875 81.0625 2.875 81.0625 3.125 83.9375 C0.5390585 90.40235374 -5.23659306 93.85016177 -11.3125 96.8125 C-27.10836229 103.41408107 -43.08996685 103.9325044 -59.125 98.0625 C-74.44109814 90.95836263 -84.86729999 79.50146416 -90.99609375 63.8359375 C-96.11627375 48.79387759 -94.65995453 33.02108959 -88.0625 18.75 C-80.0636191 4.02669302 -67.78741764 -5.08775743 -52.19921875 -10.62109375 C-33.39352194 -15.91590159 -15.96441607 -9.89793796 0 0 Z " fill="#CE151C" transform="translate(150.125,35.9375)"/>
<path d="M0 0 C2.58897634 1.23082482 4.90621233 2.62303855 7.30859375 4.18359375 C17.76080917 10.47029391 28.22726003 11.63676289 40.3125 9.84765625 C46.36817544 8.31129049 51.53112005 5.17047864 56.71313477 1.76367188 C59.58886791 -0.03432902 61.02444634 -0.87824256 64.4140625 -0.171875 C66.62109375 1.24609375 66.62109375 1.24609375 68.62109375 4.24609375 C68.49540757 7.77927195 68.23483335 9.60662083 65.7578125 12.1875 C51.60150681 21.55730361 36.88548278 26.55595086 19.875 23.59375 C9.93994559 21.22438697 -2.28366344 17.05033337 -8.37890625 8.24609375 C-8.50390625 5.12109375 -8.50390625 5.12109375 -7.37890625 2.24609375 C-4.70582292 -0.12998032 -3.50013224 -1.10923731 0 0 Z " fill="#8D8E93" transform="translate(83.37890625,172.75390625)"/>
<path d="M0 0 C5.47826087 -0.36521739 5.47826087 -0.36521739 7.875 1.3125 C9 3 9 3 9 6 C8.34 6 7.68 6 7 6 C7 5.34 7 4.68 7 4 C5.68 3.67 4.36 3.34 3 3 C3 2.34 3 1.68 3 1 C2.01 0.67 1.02 0.34 0 0 Z " fill="#CA0E11" transform="translate(143,112)"/>
</svg>
